# AST/ASF file generated using VICON BodyLanguage
# -----------------------------------------------
:version 1.10
:name VICON
:units
  mass 1.0
  length 0.45
  angle deg
:documentation
   .ast/.asf automatically generated from VICON data using
   VICON BodyBuilder and BodyLanguage model FoxedUp or BRILLIANT.MOD
:root
   order TX TY TZ RX RY RZ
   axis XYZ
   position 0 0 0  
   orientation 0 0 0 
:bonedata
  begin
     id 1 
     name lhipjoint
     direction 0.535335 -0.74333 0.401095 
     length 2.04549 
     axis 0 0 0  XYZ
  end
  begin
     id 2 
     name lfemur
     direction 0.34202 -0.939693 0  
     length 6.95643  
     axis 0 0 20  XYZ
    dof rx ry rz
    limits (-160.0 20.0)
           (-70.0 70.0)
           (-60.0 70.0)
  end
  begin
     id 3 
     name ltibia
     direction 0.34192 -0.939729 0   
     length 5.55969   
     axis 0 0 20   XYZ
    dof rx
    limits (-10.0 170.0)
  end
  begin
     id 4 
     name lfoot
     direction 0.216943 -0.596046 0.773088   
     length 2.27918   
     axis -90 7.62852e-016 20   XYZ
    dof rx rz
    limits (-45.0 90.0)
           (-70.0 20.0)
  end
  begin
     id 5 
     name ltoes
     direction 1.53519e-011 -4.21748e-011 1   
     length 1.05562   
     axis -90 7.62852e-016 20   XYZ
    dof rx
    limits (-90.0 20.0)
  end
  begin
     id 6 
     name rhipjoint
     direction -0.576368 -0.719173 0.38806   
     length 2.1142  
     axis 0 0 0  XYZ 
  end
  begin
     id 7 
     name rfemur
     direction -0.34202 -0.939693 0   
     length 7.07928   
     axis 0 0 -20   XYZ
    dof rx ry rz
    limits (-160.0 20.0)
           (-70.0 70.0)
           (-70.0 60.0)
  end
  begin
     id 8 
     name rtibia
     direction -0.34202 -0.939693 0   
     length 5.79974   
     axis 0 0 -20   XYZ
    dof rx
    limits (-10.0 170.0)
 end
 begin
     id 9 
     name rfoot
     direction -0.189288 -0.520065 0.832888   
     length 2.42173  
     axis -90 -7.62852e-016 -20   XYZ
    dof rx rz
    limits (-45.0 90.0)
           (-20.0 70.0)
  end
  begin
     id 10 
     name rtoes
     direction -1.53574e-011 -4.21658e-011 1   
     length 1.14469   
     axis -90 -7.62852e-016 -20   XYZ
    dof rx
    limits (-90.0 20.0)
  end
  begin
     id 11 
     name lowerback
     direction -0.00135702 0.993803 0.111144   
     length 1.91308   
     axis 0 0 0   XYZ
    dof rx ry rz
    limits (-20.0 45.0)
           (-30.0 30.0)
           (-30.0 30.0)
  end
  begin
     id 12 
     name upperback
     direction -0.0056745 0.999813 0.0184631   
     length 1.9212   
     axis 0 0 0   XYZ
    dof rx ry rz
    limits (-20.0 45.0)
           (-30.0 30.0)
           (-30.0 30.0)
  end
  begin
     id 13 
     name thorax
     direction -0.00733434 0.999426 -0.0330788   
     length 1.94196   
     axis 0 0 0   XYZ
    dof rx ry rz
    limits (-20.0 45.0)
           (-30.0 30.0)
           (-30.0 30.0)
  end
  begin
     id 14 
     name lowerneck
     direction 0.0563074 0.996944 -0.0541571   
     length 2.34257   
     axis 0 0 0   XYZ
    dof rx ry rz
    limits (-20.0 45.0)
           (-30.0 30.0)
           (-30.0 30.0)
  end
  begin
     id 15 
     name upperneck
     direction -0.0544519 0.976166 -0.210085   
     length 2.32506   
     axis 0 0 0   XYZ
    dof rx ry rz
    limits (-20.0 45.0)
           (-30.0 30.0)
           (-30.0 30.0)
  end
  begin
     id 16
     name head
     direction -0.0226035 0.997615 -0.0652205  
     length 2.3648  
     axis 0 0 0   XYZ
    dof rx ry rz
    limits (-20.0 45.0)
           (-30.0 30.0)
           (-30.0 30.0)
  end
  begin
     id 17 
     name lclavicle
     direction 0.92109 0.381297 -0.0787716  
     length 4.0487  
     axis 0 0 0   XYZ
    dof ry rz
    limits (-20.0 10.0)
           (0.0 20.0)
  end
  begin
     id 18 
     name lhumerus
     direction 1 -4.48986e-011 3.56724e-027   
     length 4.94991   
     axis 180 -30 -90   XYZ
    dof rx ry rz
    limits (-60.0 90.0)
           (-90.0 90.0)
           (-90.0 90.0)
  end
  begin
     id 19
     name lradius
     direction 1 -4.48981e-011 8.62147e-027   
     length 2.7606   
     axis 180 -30 -90   XYZ
    dof rx
    limits (-10.0 170.0)
  end
  begin
     id 20
     name lwrist
     direction 1 -4.48989e-011 1.59799e-026   
     length 1.3803   
     axis -1.17785e-014 90 90   XYZ
    dof ry
    limits (-180.0 0.0)
 end
  begin
     id 21 
     name lhand
     direction 1 -4.48896e-011 3.19599e-026   
     length 0.843936   
     axis -2.03931e-014 90 90   XYZ
    dof rx rz
    limits (-90.0 90.0)
           (-45.0 45.0)
  end
  begin
     id 22 
     name lfingers
     direction 1 -4.48887e-011 6.39197e-026   
     length 0.680403   
     axis -4.07862e-014 90 90   XYZ
    dof rx
    limits (0.0 90.0)
  end
  begin
     id 23
     name lthumb
     direction 0.707107 -6.348e-011 0.707107   
     length 0.976926   
     axis -90 45 2.85299e-015   XYZ
    dof rx rz
    limits (-45.0 45.0)
           (-45.0 45.0)
  end
  begin
     id 24 
     name rclavicle
     direction -0.951104 0.307692 -0.026953   
     length 4.21801  
     axis 0 0 0   XYZ 
    dof ry rz
    limits (-10.0 20.0)
           (-20.0 0.0)
  end
  begin
     id 25 
     name rhumerus
     direction -1 -4.4896e-011 -1.8171e-018  
     length 4.32982   
     axis 180 30 90   XYZ
    dof rx ry rz
    limits (-90.0 60.0)
           (-90.0 90.0)
           (-90.0 90.0)
  end
  begin
     id 26 
     name rradius
     direction -1 -4.48959e-011 8.25165e-027   
     length 3.20057   
     axis 180 30 90   XYZ
    dof rx
    limits (-10.0 170.0)
  end
  begin
     id 27 
     name rwrist
     direction -1 -4.48997e-011 1.59799e-026   
     length 1.60029   
     axis -1.17785e-014 -90 -90   XYZ
    dof ry
    limits (-180.0 0.0)
  end
  begin
     id 28
     name rhand
     direction -1 -4.49023e-011 3.19599e-026   
     length 0.960433   
     axis -2.03931e-014 -90 -90   XYZ
    dof rx rz
    limits (-90.0 90.0)
           (-45.0 45.0)
  end
  begin
     id 29
     name rfingers
     direction -1 -4.48802e-011 6.39197e-026   
     length 0.774326   
     axis -4.07862e-014 -90 -90   XYZ
    dof rx
    limits (0.0 90.0)
  end
  begin
     id 30
     name rthumb
     direction -0.707107 -6.34876e-011 0.707107   
     length 1.11178   
     axis -90 -45 -2.85299e-015   XYZ
    dof rx rz
    limits (-45.0 45.0)
           (-45.0 45.0)
  end
:hierarchy
  begin
    root lhipjoint rhipjoint lowerback
    lhipjoint lfemur
    lfemur ltibia
    ltibia lfoot
    lfoot ltoes
    rhipjoint rfemur
    rfemur rtibia
    rtibia rfoot
    rfoot rtoes
    lowerback upperback
    upperback thorax
    thorax lowerneck lclavicle rclavicle
    lowerneck upperneck
    upperneck head
    lclavicle lhumerus
    lhumerus lradius
    lradius lwrist
    lwrist lhand lthumb
    lhand lfingers
    rclavicle rhumerus
    rhumerus rradius
    rradius rwrist
    rwrist rhand rthumb
    rhand rfingers
end

#!OML:ASF C:\KaitlinTest1\Natural Motions\Nikki\Session 2\Nikki.ASF
:FULLY-SPECIFIED
:DEGREES
158
root -14.7734 15.2508 4.80661 67.1813 84.3315 37.7892
lowerback 8.57492 -0.508745 -4.87952
upperback 1.79746 -1.10253 -2.59088
thorax -2.89891 -0.475975 0.175615
lowerneck -40.1394 -31.08 10.4643
upperneck -3.28023 -61.6742 7.17908
head 197.651 188.551 20.2282
rclavicle -1.98785e-014 1.15295e-014
rhumerus -74.9654 -0.187925 -53.7545
rradius 24.2704
rwrist 6.50273
rhand -43.8452 8.06425
rfingers 7.12502
rthumb -16.6722 -21.2397
lclavicle -1.98785e-014 1.15295e-014
lhumerus -85.6476 5.50526 29.5443
lradius 28.897
lwrist -21.5931
lhand -31.8943 5.22838
lfingers 7.12502
lthumb -5.14671 35.1459
rfemur -62.0067 -6.02357 17.8694
rtibia 60.7602
rfoot -23.004 -0.0685565
rtoes -3.92799e-013
lfemur -60.1294 2.72551 -25.3235
ltibia 53.7855
lfoot -13.4857 -1.04416
ltoes -3.95979e-013
159
root -14.8208 15.1188 4.81085 70.9195 84.3808 41.0109
lowerback 9.24033 -0.520844 -4.98163
upperback 1.48681 -1.19455 -2.5774
thorax -3.58678 -0.504558 0.265596
lowerneck -40.1265 -31.2115 10.4199
upperneck -2.93318 -61.7299 6.81577
head 197.683 188.525 20.7854
rclavicle -3.18055e-015 4.37326e-014
rhumerus -77.5209 -0.432353 -52.0252
rradius 23.7061
rwrist 7.90463
rhand -44.3122 7.91228
rfingers 7.12502
rthumb -17.1217 -21.3533
lclavicle -3.18055e-015 4.37326e-014
lhumerus -88.1778 4.63605 28.6171
lradius 29.0973
lwrist -21.0441
lhand -32.4124 5.63223
lfingers 7.12502
lthumb -5.64688 35.537
rfemur -63.9725 -6.02371 17.7004
rtibia 62.899
rfoot -23.5581 -0.515169
rtoes -6.91771e-014
lfemur -62.1116 2.38148 -25.4454
ltibia 55.9199
lfoot -14.0987 -0.973713
ltoes -9.06458e-014
160
root -14.8601 14.9878 4.80987 71.8697 84.3655 41.2248
lowerback 9.42979 -0.489174 -4.94974
upperback 1.19917 -1.18494 -2.62113
thorax -3.99499 -0.49106 0.204175
lowerneck -40.0599 -31.4671 10.2342
upperneck -2.26678 -62.2446 6.23759
head 197.933 188.177 21.8144
rclavicle -2.8625e-014 -1.11319e-014
rhumerus -79.9068 -0.746176 -50.2099
rradius 23.187
rwrist 9.1446
rhand -44.3548 7.9963
rfingers 7.12502
rthumb -17.1627 -21.2657
lclavicle -2.8625e-014 -1.11319e-014
lhumerus -90.4987 3.7766 28.2459
lradius 29.2178
lwrist -20.0382
lhand -32.7142 6.15361
lfingers 7.12502
lthumb -5.93833 36.0504
rfemur -66.1315 -5.84044 17.6373
rtibia 64.9977
rfoot -24.1302 -0.857517
rtoes -3.88028e-013
lfemur -64.2174 2.17875 -25.4494
ltibia 58.016
lfoot -14.7598 -0.740016
ltoes -3.68944e-013
161
root -14.895 14.8595 4.80958 71.7709 84.3004 40.4906
lowerback 9.65943 -0.416414 -5.00147
upperback 0.95555 -1.12748 -2.60906
thorax -4.37936 -0.453192 0.241127
lowerneck -40.1808 -31.4851 10.2728
upperneck -1.78083 -62.2628 5.76375
head 198.012 187.843 22.688
rclavicle -3.97569e-016 7.95139e-015
rhumerus -82.2658 -0.871771 -48.6804
rradius 22.7552
rwrist 11.1392
rhand -45.2835 7.07265
rfingers 7.12502
rthumb -18.0564 -22.1092
lclavicle -3.97569e-016 7.95139e-015
lhumerus -92.9631 3.2548 27.0188
lradius 29.6208
lwrist -20.2888
lhand -33.5052 6.82161
lfingers 7.12502
lthumb -6.70197 36.6955
rfemur -68.1224 -5.58818 17.5639
rtibia 67.0791
rfoot -24.7361 -1.19393
rtoes -1.33583e-013
lfemur -66.2013 2.10214 -25.4823
ltibia 60.0584
lfoot -15.3844 -0.508163
ltoes -9.06458e-014
162
root -14.9318 14.7271 4.80869 72.3288 84.2168 40.5238
lowerback 10.039 -0.352758 -4.93912
upperback 0.739382 -1.08097 -2.69469
thorax -4.82348 -0.421542 0.113933
lowerneck -40.2742 -31.4991 10.3008
upperneck -1.53815 -62.1585 5.50608
head 198.033 187.48 23.1955
rclavicle 2.34566e-014 7.7526e-014
rhumerus -84.5763 -1.05497 -47.3983
rradius 22.1504
rwrist 13.7408
rhand -47.0818 5.58648
rfingers 7.12502
rthumb -19.7859 -23.4265
lclavicle 2.34566e-014 7.7526e-014
lhumerus -95.0092 2.72536 25.7719
lradius 29.9108
lwrist -19.4606
lhand -33.7563 6.77123
lfingers 7.12502
lthumb -6.94436 36.6373
rfemur -70.0004 -5.37974 17.3904
rtibia 69.1348
rfoot -25.3291 -1.51216
rtoes 1.28812e-013
lfemur -68.0219 2.00458 -25.5833
ltibia 62.0733
lfoot -16.0458 -0.326629
ltoes 0
163
root -14.966 14.5949 4.80718 72.7498 84.0331 40.4784
lowerback 10.5718 -0.275199 -5.05017
upperback 0.486806 -1.04824 -2.76191
thorax -5.38915 -0.38992 0.104297
lowerneck -40.3249 -31.5536 10.3271
upperneck -1.27716 -62.2258 5.2604
head 198.071 187.421 23.6143
rclavicle -1.82882e-014 -5.88403e-014
rhumerus -86.6747 -1.11702 -46.1739
rradius 22.1659
rwrist 12.9843
rhand -46.4092 6.39465
rfingers 7.12502
rthumb -19.1393 -22.6836
lclavicle -1.82882e-014 -5.88403e-014
lhumerus -97.0148 2.19429 24.6257
lradius 30.4979
lwrist -17.1432
lhand -33.1305 5.80717
lfingers 7.12502
lthumb -6.34016 35.6923
rfemur -71.8048 -5.12604 17.1086
rtibia 71.1405
rfoot -25.9071 -1.91739
rtoes -2.16278e-013
lfemur -69.7117 1.90329 -25.7582
ltibia 64.031
lfoot -16.7513 -0.0723523
ltoes -2.11507e-013
164
root -14.999 14.4658 4.8072 72.7847 83.996 40.007
lowerback 11.0489 -0.162725 -4.94196
upperback 0.220007 -0.941346 -2.79929
thorax -5.94624 -0.32862 -0.0104643
lowerneck -40.382 -31.6945 10.1817
upperneck -1.0914 -62.2066 5.045
head 198.152 186.972 24.0814
rclavicle -3.18055e-014 -5.68524e-014
rhumerus -88.6368 -1.27096 -44.5887
rradius 21.9442
rwrist 12.157
rhand -44.3151 7.95199
rfingers 7.12502
rthumb -17.1245 -21.3133
lclavicle -3.18055e-014 -5.68524e-014
lhumerus -98.6223 1.665 22.9582
lradius 31.479
lwrist -12.2903
lhand -30.9811 3.27437
lfingers 7.12502
lthumb -4.26493 33.2114
rfemur -73.5646 -4.83831 16.9792
rtibia 73.0541
rfoot -26.4237 -2.36302
rtoes 1.03368e-014
lfemur -71.4593 1.85994 -25.7964
ltibia 65.9398
lfoot -17.3433 0.0892014
ltoes -1.11319e-014
165
root -15.0329 14.3298 4.8082 73.5624 83.9425 40.1758
lowerback 11.4617 -0.0527562 -4.80642
upperback -0.0698574 -0.831488 -2.86954
thorax -6.49412 -0.268445 -0.179126
lowerneck -40.4753 -31.858 10.0482
upperneck -0.975907 -62.2483 4.91177
head 198.232 186.607 24.4459
rclavicle -2.46493e-014 -1.94809e-014
rhumerus -90.622 -1.42951 -43.7897
rradius 21.802
rwrist 11.9471
rhand -44.2481 7.57251
rfingers 7.12502
rthumb -17.06 -21.6984
lclavicle -2.46493e-014 -1.94809e-014
lhumerus -100.279 1.26153 22.8387
lradius 31.9455
lwrist -11.6112
lhand -31.8353 4.0933
lfingers 7.12502
lthumb -5.08975 34.0122
rfemur -75.4065 -4.6254 16.8241
rtibia 74.8584
rfoot -26.8816 -2.80397
rtoes -1.39944e-013
lfemur -73.3508 1.7641 -25.8791
ltibia 67.7852
lfoot -17.8323 0.225708
ltoes -1.98785e-013
166
root -15.0604 14.1977 4.81106 73.1465 83.8015 39.209
lowerback 11.8291 0.0894477 -4.78475
upperback -0.318723 -0.685376 -2.90428
thorax -6.97334 -0.189056 -0.255477
lowerneck -40.6177 -32.0184 9.85046
upperneck -0.962001 -62.1974 4.84708
head 198.311 186.112 24.7613
rclavicle 1.43125e-014 8.34896e-015
rhumerus -92.3372 -1.66978 -43.0328
rradius 21.6031
rwrist 12.0167
rhand -44.7709 6.74522
rfingers 7.12502
rthumb -17.5632 -22.4815
lclavicle 1.43125e-014 8.34896e-015
lhumerus -101.899 1.04378 22.8581
lradius 32.4275
lwrist -11.2401
lhand -32.5478 5.11648
lfingers 7.12502
lthumb -5.77761 35.0177
rfemur -77.0961 -4.30745 16.6607
rtibia 76.5619
rfoot -27.315 -3.27237
rtoes 8.42847e-014
lfemur -75.0367 1.80212 -25.9986
ltibia 69.5317
lfoot -18.3959 0.418648
ltoes 6.36111e-015
167
root -15.0819 14.0803 4.81754 73.3838 83.8593 38.934
lowerback 12.0785 0.172067 -4.62812
upperback -0.491051 -0.582046 -2.86315
thorax -7.30345 -0.138523 -0.320673
lowerneck -40.8266 -32.1589 9.65593
upperneck -0.903816 -62.0709 4.71963
head 198.39 185.547 25.2105
rclavicle 6.55989e-015 4.33351e-014
rhumerus -93.7816 -2.03405 -42.0268
rradius 21.6227
rwrist 10.8492
rhand -44.2322 6.97764
rfingers 7.12502
rthumb -17.0447 -22.2946
lclavicle 6.55989e-015 4.33351e-014
lhumerus -103.438 1.13381 23.4774
lradius 32.9491
lwrist -11.1495
lhand -33.4612 6.92003
lfingers 7.12502
lthumb -6.65941 36.7953
rfemur -78.5829 -4.08938 16.7084
rtibia 78.1115
rfoot -27.7964 -3.81568
rtoes -5.64548e-014
lfemur -76.6123 1.80715 -25.9584
ltibia 71.1717
lfoot -18.9141 0.454556
ltoes -1.31993e-013
168
root -15.1054 13.9659 4.8224 73.4849 83.8508 38.5068
lowerback 12.8622 0.109836 -4.8698
upperback -0.856824 -0.775565 -2.82073
thorax -8.13607 -0.204748 -0.109739
lowerneck -41.1675 -31.9074 10.0266
upperneck -0.737516 -62.2328 4.66011
head 198.388 185.871 25.4769
rclavicle -1.55052e-014 -5.36719e-014
rhumerus -94.7179 -2.17314 -41.2704
rradius 21.4758
rwrist 10.572
rhand -44.6749 6.64556
rfingers 7.12502
rthumb -17.4708 -22.5894
lclavicle -1.55052e-014 -5.36719e-014
lhumerus -105.195 1.35037 22.9362
lradius 33.5858
lwrist -9.60502
lhand -33.3686 7.15048
lfingers 7.12502
lthumb -6.57003 37.0286
rfemur -80.1181 -3.83229 16.6439
rtibia 79.5957
rfoot -28.1814 -4.27482
rtoes 4.77083e-015
lfemur -78.1621 1.80865 -25.9815
ltibia 72.6892
lfoot -19.3292 0.554469
ltoes 3.81667e-014
169
root -15.1241 13.8565 4.82609 73.1449 83.7824 37.5764
lowerback 13.3035 0.134433 -4.92611
upperback -1.1761 -0.803443 -2.80059
thorax -8.73452 -0.202536 -0.0555362
lowerneck -41.4312 -31.8326 10.0558
upperneck -0.677699 -62.1261 4.58714
head 198.43 185.544 25.8285
rclavicle -2.72335e-014 -2.90226e-014
rhumerus -95.6995 -2.52348 -40.3835
rradius 21.6018
rwrist 9.60632
rhand -44.5549 6.70057
rfingers 7.12502
rthumb -17.3553 -22.5446
lclavicle -2.72335e-014 -2.90226e-014
lhumerus -106.535 1.68899 22.7429
lradius 34.0975
lwrist -8.23082
lhand -33.3843 7.59178
lfingers 7.12502
lthumb -6.58518 37.4694
rfemur -81.6386 -3.52732 16.5131
rtibia 80.9597
rfoot -28.4982 -4.66866
rtoes 2.09917e-013
lfemur -79.7072 1.80545 -25.9894
ltibia 74.1212
lfoot -19.7427 0.732119
ltoes 1.62208e-013
170
root -15.1368 13.7565 4.8267 72.4093 83.7519 36.2276
lowerback 13.7366 0.154744 -4.89007
upperback -1.51816 -0.824576 -2.79972
thorax -9.3586 -0.201211 -0.0757648
lowerneck -41.7057 -31.7426 10.1166
upperneck -0.593869 -62.1067 4.52186
head 198.496 185.242 26.1949
rclavicle 2.38542e-015 6.75868e-015
rhumerus -96.4707 -2.95581 -39.9386
rradius 21.7172
rwrist 8.36322
rhand -44.5818 7.23925
rfingers 7.12502
rthumb -17.3812 -22.0036
lclavicle 2.38542e-015 6.75868e-015
lhumerus -107.668 2.12825 22.6548
lradius 34.639
lwrist -6.59494
lhand -33.0316 7.83937
lfingers 7.12502
lthumb -6.2447 37.7273
rfemur -83.1102 -3.23341 16.4539
rtibia 82.2285
rfoot -28.8249 -4.99868
rtoes 1.63799e-013
lfemur -81.1775 1.82136 -25.9365
ltibia 75.4659
lfoot -20.2001 0.902068
ltoes 1.59028e-013
